<?xml version="1.0" standalone="no"?>
<!DOCTYPE svg PUBLIC "-//W3C//DTD SVG 20010904//EN"
 "http://www.w3.org/TR/2001/REC-SVG-20010904/DTD/svg10.dtd">
<svg version="1.0" xmlns="http://www.w3.org/2000/svg"
 width="1080.000000pt" height="1080.000000pt" viewBox="0 0 1080.000000 1080.000000"
 preserveAspectRatio="xMidYMid meet">
<metadata>
Created by potrace 1.14, written by Peter Selinger 2001-2017
</metadata>
<g transform="translate(0.000000,1080.000000) scale(0.100000,-0.100000)"
fill="#000000" stroke="none">
<path d="M10 10572 c0 -4 14 -45 31 -92 63 -174 187 -546 229 -690 12 -41 31
-102 41 -135 36 -120 140 -526 154 -605 3 -17 12 -56 20 -88 9 -31 18 -73 21
-92 4 -19 7 -39 9 -45 1 -5 5 -28 9 -50 4 -22 16 -83 26 -135 10 -52 21 -117
25 -143 3 -26 10 -70 15 -96 8 -44 28 -191 45 -340 4 -30 8 -61 10 -70 1 -9 6
-59 10 -111 4 -52 9 -111 11 -130 26 -275 25 -958 -1 -1200 -2 -19 -6 -73 -10
-120 -3 -47 -8 -92 -10 -100 -2 -8 -6 -42 -10 -75 -3 -33 -8 -71 -10 -85 -2
-14 -7 -45 -10 -70 -3 -25 -8 -56 -10 -70 -3 -14 -7 -41 -10 -60 -5 -33 -18
-110 -30 -175 -10 -57 -16 -87 -30 -149 -8 -33 -16 -74 -19 -91 -3 -16 -10
-46 -16 -65 l-10 -35 1937 -1933 c1066 -1063 2152 -2146 2414 -2408 l476 -476
42 123 c34 100 85 263 117 369 89 307 209 869 249 1170 3 25 10 72 15 105 5
33 11 78 14 100 3 22 8 65 12 95 4 30 8 66 9 80 1 14 5 50 9 80 13 109 19 175
31 310 3 36 8 85 10 110 5 48 13 156 20 280 2 41 7 118 10 170 3 52 8 127 10
165 5 71 10 171 20 395 3 69 7 175 10 235 3 61 8 205 11 320 3 116 7 238 8
273 l2 64 -65 63 c-36 34 -79 75 -96 90 -16 14 -77 71 -135 124 -58 54 -127
119 -155 144 -27 25 -75 69 -106 99 -31 29 -105 98 -164 153 -59 55 -127 118
-150 140 -24 22 -94 87 -156 145 -63 58 -125 116 -140 130 -15 14 -69 64 -120
111 -52 48 -110 102 -130 120 -20 19 -89 84 -154 144 -142 132 -122 114 -220
205 -44 41 -137 127 -205 191 -69 64 -155 144 -193 179 -37 35 -77 72 -90 82
-12 11 -53 49 -92 86 -115 109 -213 201 -339 317 -121 113 -167 155 -246 229
-25 23 -83 77 -130 121 -47 43 -114 106 -150 139 -76 71 -289 269 -340 316
-66 61 -307 286 -480 447 -36 34 -81 75 -100 93 -19 18 -89 82 -154 144 -65
61 -128 119 -139 128 -27 24 -247 229 -467 436 -36 33 -75 69 -86 79 -12 10
-81 74 -154 143 -73 69 -140 132 -150 140 -16 14 -184 170 -291 270 -26 25
-94 88 -150 140 -57 52 -115 107 -131 122 -15 15 -28 24 -28 20z"/>
<path d="M5700 8370 c-58 -10 -121 -21 -140 -24 -19 -3 -55 -9 -80 -15 -25 -5
-61 -12 -80 -15 -81 -12 -260 -52 -500 -111 -67 -17 -189 -52 -315 -91 -82
-25 -160 -49 -173 -51 -12 -3 -25 -9 -28 -14 -3 -5 -12 -9 -20 -9 -33 0 -613
-232 -644 -257 -5 -5 29 -38 240 -233 68 -63 138 -128 156 -145 17 -16 80 -75
139 -130 158 -146 152 -141 280 -260 65 -60 132 -123 149 -139 17 -15 87 -81
156 -145 69 -64 154 -143 190 -176 35 -33 76 -71 91 -85 22 -21 192 -179 279
-260 175 -162 257 -238 275 -255 128 -120 177 -165 279 -260 65 -61 135 -126
156 -145 20 -19 87 -82 149 -139 l111 -104 -5 -156 c-17 -551 -37 -1013 -50
-1206 -2 -27 -6 -97 -10 -155 -9 -146 -22 -334 -30 -410 -2 -19 -6 -69 -10
-110 -4 -41 -8 -88 -10 -105 -1 -16 -6 -64 -9 -105 -4 -41 -9 -91 -11 -110 -3
-19 -7 -55 -10 -80 -7 -61 -12 -97 -29 -220 -8 -58 -18 -127 -21 -155 -4 -27
-8 -57 -10 -65 -5 -17 -11 -53 -20 -120 -4 -25 -20 -110 -36 -190 -16 -80 -32
-158 -35 -175 -36 -204 -166 -683 -254 -934 -22 -63 -38 -116 -36 -118 2 -2
34 47 71 109 38 62 118 187 178 278 98 147 148 218 291 410 70 94 264 331 335
410 37 41 88 98 112 126 95 111 542 544 635 616 16 12 31 25 34 28 3 3 61 51
130 107 580 467 1225 832 1925 1088 94 34 211 74 260 89 50 15 101 31 115 37
113 41 608 163 750 184 24 4 47 8 50 10 3 1 28 6 55 10 28 3 54 10 58 14 4 4
-286 243 -645 530 -359 287 -662 530 -673 539 -11 9 -101 81 -200 160 -99 78
-189 150 -200 160 -11 9 -133 107 -271 217 -220 176 -571 457 -614 492 -14 12
-1318 1055 -1388 1111 -19 15 -243 195 -499 400 -256 204 -470 372 -477 371
-6 -1 -58 -9 -116 -19z"/>
</g>
</svg>
