<?xml version="1.0" encoding="UTF-8" standalone="no"?>
<!DOCTYPE svg PUBLIC "-//W3C//DTD SVG 1.1//EN" "http://www.w3.org/Graphics/SVG/1.1/DTD/svg11.dtd">
<svg width="100%" height="100%" viewBox="0 0 931 336" version="1.1" xmlns="http://www.w3.org/2000/svg" xmlns:xlink="http://www.w3.org/1999/xlink" xml:space="preserve" xmlns:serif="http://www.serif.com/" style="fill-rule:evenodd;clip-rule:evenodd;stroke-linejoin:round;stroke-miterlimit:2;">
    <g transform="matrix(0.661156,0,0,0.661156,-17.1635,-47.1663)">
        <path d="M206.203,571.725C208.079,570.732 210.858,570.005 214.539,569.544C218.22,569.084 221.54,568.321 224.5,567.258C224.861,565.84 225.077,564.812 225.149,564.174C225.294,563.181 225.366,559.778 225.366,553.965L225.258,530.249L225.691,517.487L225.474,507.597L225.691,501.854C225.907,494.126 226.015,486.894 226.015,480.159C226.015,465.412 225.835,455.983 225.474,451.871L219.086,450.594C213.24,450.24 209.342,449.885 207.394,449.531L207.177,443.15L207.61,441.98C211.219,441.413 214.539,441.129 217.571,441.129C219.231,441.129 222.587,441.094 227.639,441.023C232.836,441.448 235.651,441.661 236.084,441.661L241.822,441.342L255.356,440.704C263.801,439.853 272.715,439.428 282.098,439.428C296.894,439.428 308.659,443.132 317.393,450.541C326.126,457.95 330.493,466.44 330.493,476.012C330.493,483.172 328.137,489.677 323.425,495.526C318.713,501.375 311.466,505.789 301.682,508.767C302.545,510.256 303.696,511.993 305.135,513.978C308.156,518.232 310.602,521.847 312.472,524.825L329.735,552.369C334.066,559.672 336.899,563.943 338.234,565.184C339.569,566.425 342.33,567.79 346.516,569.279C349.764,570.484 352.254,571.689 353.987,572.894C354.42,574.1 354.636,575.163 354.636,576.085C354.636,576.723 354.6,577.538 354.528,578.531L351.605,578.531L349.44,578.637L343.81,577.893L339.371,577.893C337.061,577.538 334.21,577.361 330.818,577.361L319.991,577.255C319.197,577.255 316.671,577.503 312.412,577.999C310.464,578.212 308.912,578.389 307.757,578.531L304.076,571.512C301.044,566.195 298.915,562.224 297.688,559.601C294.512,552.724 289.063,541.77 281.34,526.739C277.731,519.791 275.205,515.857 273.761,514.935C271.596,513.446 267.879,512.702 262.61,512.702C261.166,512.702 258.712,512.772 255.247,512.914C255.031,514.97 254.923,517.416 254.923,520.252L255.464,543.861L254.814,563.855C256.835,565.06 259.47,565.982 262.718,566.62C268.348,567.754 273.184,569.101 277.226,570.661C277.226,574.135 277.082,576.758 276.794,578.531C275.423,578.46 274.557,578.425 274.196,578.425L269.757,578.637C254.239,577.29 245.036,576.617 242.149,576.617C240.271,576.617 238.935,576.652 238.141,576.723L223.201,577.68C218.653,578.176 214.503,578.425 210.75,578.425L206.094,578.425C205.95,576.652 205.878,575.518 205.878,575.021C205.878,574.241 205.986,573.143 206.203,571.725ZM254.923,502.918C258.387,503.059 260.913,503.13 262.501,503.13C274.772,503.13 283.469,500.968 288.594,496.643C293.718,492.318 296.281,486.54 296.281,479.308C296.281,474.842 295.651,470.641 294.391,466.706C293.131,462.771 291.565,459.847 289.693,457.932C287.031,455.167 283.54,453.076 279.22,451.658C276.052,450.594 270.977,450.063 263.995,450.063C260.683,450.063 257.839,450.24 255.464,450.594L255.247,452.615L255.464,466.972L255.139,475.692L255.247,487.284C255.103,490.546 254.995,494.764 254.923,499.94L254.923,502.918ZM378.325,440.598C382.439,440.81 386.012,441.129 389.043,441.555C394.746,442.335 401.35,442.725 408.856,442.725C411.455,442.725 418.131,442.512 428.886,442.087C444.981,441.448 459.525,441.129 472.517,441.129L492.113,440.917C496.516,440.917 503.012,441.448 511.601,442.512C512.901,443.93 513.55,445.844 513.55,448.255L513.55,470.162L513.767,474.523C513.767,474.948 513.731,475.586 513.658,476.437L509.22,476.65C508.642,476.65 507.415,476.579 505.538,476.437C504.889,475.019 504.023,472.927 502.94,470.162L498.609,462.612C496.949,459.421 494.64,456.16 491.68,452.828C489.876,452.331 487.566,452.048 484.751,451.977C484.029,451.906 481.828,451.729 478.147,451.445C471.434,450.878 464.217,450.594 456.494,450.594C447.688,450.594 439.821,450.736 432.892,451.02C432.675,452.792 432.567,459.776 432.567,471.97L432.675,489.837L432.675,503.237C434.483,503.449 436.038,503.556 437.341,503.556C450.289,503.556 459.511,503.307 465.009,502.811C470.506,502.315 473.906,501.624 475.208,500.737C476.51,499.851 477.667,498.309 478.68,496.111C479.331,494.552 480.597,489.34 482.478,480.478L483.885,480.372L490.165,480.478C490.453,486.788 490.598,491.574 490.598,494.835C490.598,502.279 490.544,507.065 490.435,509.192C490.327,511.319 490.273,512.985 490.273,514.19C490.273,516.105 490.381,519.171 490.598,523.389C490.814,527.608 490.922,530.745 490.922,532.801L490.922,535.141L483.236,535.141C482.946,534.007 482.403,531.667 481.608,528.122C480.161,521.528 478.859,517.416 477.702,515.786C476.834,514.509 475.387,513.552 473.363,512.914C471.916,512.418 466.563,512.17 457.304,512.17C446.381,512.17 438.172,512.453 432.675,513.021L432.675,516.636C432.675,525.073 432.819,532.092 433.108,537.693L432.892,560.664C432.892,563.359 433.866,565.202 435.815,566.195C438.774,567.683 447.832,568.428 462.99,568.428C473.022,568.428 481.539,567.683 488.541,566.195C493.377,565.131 497.635,562.756 501.316,559.069C506.224,554.319 510.302,547.655 513.55,539.076C515.788,538.863 517.628,538.757 519.072,538.757C519.866,538.757 521.057,538.792 522.645,538.863C522.431,540.636 522.254,542.124 522.112,543.33L521.472,546.52L517.527,566.62L515.607,578.744C510.912,578.956 507.192,579.063 504.447,579.063C500.402,579.063 489.603,578.708 472.05,577.999C459.698,577.503 444.817,577.255 427.409,577.255C418.741,577.255 408.086,577.609 395.445,578.318L390.894,578.318L377.784,578.744L377.784,571.406C379.155,571.051 381.898,570.661 386.012,570.236C393.519,569.385 398.715,568.251 401.602,566.833C402.396,564.777 402.793,562.189 402.793,559.069C402.793,557.864 402.757,555.808 402.685,552.901L402.793,549.604L402.469,509.511L402.577,497.494L402.036,480.478L402.144,468.461L401.169,455.274C401.169,454.919 401.097,454.21 400.953,453.147C400.231,452.367 399.148,451.871 397.705,451.658C396.911,451.516 395.828,451.303 394.457,451.02C390.343,450.169 386.373,449.673 382.547,449.531C381.176,449.46 379.588,449.318 377.784,449.106L378.325,440.598ZM550.339,578.212L550.556,570.98C551.927,570.555 554.345,570.023 557.81,569.385C563.367,568.321 566.742,567.364 567.933,566.514C569.124,565.663 570.585,563.607 572.317,560.345L594.174,504.136L619.816,438.045L631.593,438.045L632.566,439.96L651.386,483.775C655.64,493.063 659.461,502.084 662.85,510.84C666.239,519.596 669.159,526.739 671.61,532.27C673.052,535.602 675.035,540.6 677.559,547.265C678.856,550.88 680.839,555.418 683.507,560.877C684.951,563.855 686.034,565.592 686.755,566.088C688.055,567.152 690.166,567.861 693.089,568.215C696.012,568.57 699.17,569.385 702.562,570.661C702.923,573.001 703.104,574.738 703.104,575.872C703.104,576.368 703.067,577.148 702.995,578.212C697.654,578.212 691.772,577.964 685.348,577.467C678.924,576.971 673.15,576.723 668.025,576.723C662.323,576.723 658.209,576.794 655.683,576.936L637.277,577.893L631.972,578.105C631.972,575.624 632.081,573.249 632.297,570.98L644.315,568.428C647.924,567.506 650.017,566.797 650.594,566.301C651.316,565.592 651.677,564.777 651.677,563.855C651.677,562.933 651.496,561.976 651.136,560.983L646.835,550.561L638.341,529.717L597.009,529.611C595.475,533.014 592.297,541.345 587.475,554.603C586.103,558.36 585.418,560.913 585.418,562.26C585.418,564.103 585.923,565.415 586.933,566.195C588.593,567.542 591.769,568.499 596.461,569.066C597.11,569.208 599.673,569.598 604.148,570.236C604.22,572.788 604.256,574.561 604.256,575.553C604.256,576.333 604.184,577.148 604.04,577.999C599.565,577.999 588.882,577.396 571.993,576.191L567.554,576.936C562.212,577.786 557.124,578.212 552.288,578.212L550.339,578.212ZM601.267,518.444C618.135,518.657 628.083,518.763 631.111,518.763L633.815,518.657C631.649,512.347 628.834,504.991 625.369,496.59C621.904,488.188 619.089,481.79 616.923,477.394L601.267,518.444ZM726.359,569.491C727.442,569.208 729.679,568.782 733.072,568.215C739.784,567.082 744.187,565.559 746.28,563.647C747.58,562.443 748.41,560.14 748.77,556.74C748.843,555.89 749.095,545.088 749.528,524.333L749.42,512.647L749.528,498.516L749.204,462.284L749.204,458.034C749.204,456.193 748.698,454.776 747.688,453.785C747.183,453.289 745.775,453.04 743.465,453.04C741.589,453.04 739.423,453.253 736.969,453.678C733.794,453.82 730.943,454.104 728.416,454.529C727.983,454.6 727.298,454.707 726.359,454.848L726.251,445.49C730.509,444.143 736.609,442.831 744.548,441.555C757.684,439.428 773.852,438.364 793.052,438.364C809.075,438.364 820.804,439.25 828.238,441.021C839.498,443.784 848.665,447.893 855.738,453.348C865.193,460.645 872.285,469.093 877.012,478.693C881.74,488.292 884.104,498.759 884.104,510.094C884.104,524.405 880.928,536.679 874.576,546.916C868.225,557.153 859.094,565.353 847.185,571.517C838.812,575.909 827.444,578.105 813.081,578.105L790.886,577.245L784.39,576.957L775.621,577.148L773.022,576.957L763.928,577.148L751.91,577.042C751.477,577.042 747.796,577.269 740.867,577.723C738.557,577.851 735.526,577.946 731.773,578.009C729.463,578.009 727.731,578.041 726.576,578.105C726.431,576.546 726.359,573.674 726.359,569.491ZM778.869,451.168C778.724,453.362 778.652,454.92 778.652,455.84L778.869,473.898L778.869,489.617C779.013,494.715 779.085,499.176 779.085,502.999L778.869,513.09L779.193,529.978L778.869,540.387C778.869,550.088 780.709,556.673 784.39,560.143C789.731,565.099 797.094,567.577 806.477,567.577C813.622,567.577 818.891,566.905 822.284,565.56C829.357,562.87 834.969,559.296 839.119,554.838C843.269,550.379 846.427,544.063 848.592,535.889C850.758,527.714 851.84,519.275 851.84,510.57C851.84,496.274 849.513,484.596 844.857,475.537C840.202,466.478 833.832,459.666 825.748,455.102C817.664,450.537 808.389,448.255 797.924,448.255C790.561,448.255 784.21,449.226 778.869,451.168ZM920.676,440.598C924.791,440.81 928.363,441.129 931.395,441.555C937.097,442.335 943.701,442.725 951.208,442.725C953.806,442.725 960.482,442.512 971.237,442.087C987.333,441.448 1001.88,441.129 1014.87,441.129L1034.46,440.917C1038.87,440.917 1045.36,441.448 1053.95,442.512C1055.25,443.93 1055.9,445.844 1055.9,448.255L1055.9,470.162L1056.12,474.523C1056.12,474.948 1056.08,475.586 1056.01,476.437L1051.57,476.65C1050.99,476.65 1049.77,476.579 1047.89,476.437C1047.24,475.019 1046.37,472.927 1045.29,470.162L1040.96,462.612C1039.3,459.421 1036.99,456.16 1034.03,452.828C1032.23,452.331 1029.92,452.048 1027.1,451.977C1026.38,451.906 1024.18,451.729 1020.5,451.445C1013.79,450.878 1006.57,450.594 998.845,450.594C990.039,450.594 982.172,450.736 975.243,451.02C975.026,452.792 974.918,459.776 974.918,471.97L975.026,489.837L975.026,503.237C976.834,503.449 978.389,503.556 979.692,503.556C992.64,503.556 1001.86,503.307 1007.36,502.811C1012.86,502.315 1016.26,501.624 1017.56,500.737C1018.86,499.851 1020.02,498.309 1021.03,496.111C1021.68,494.552 1022.95,489.34 1024.83,480.478L1026.24,480.372L1032.52,480.478C1032.81,486.788 1032.95,491.574 1032.95,494.835C1032.95,502.279 1032.89,507.065 1032.79,509.192C1032.68,511.319 1032.62,512.985 1032.62,514.19C1032.62,516.105 1032.73,519.171 1032.95,523.389C1033.16,527.608 1033.27,530.745 1033.27,532.801L1033.27,535.141L1025.59,535.141C1025.3,534.007 1024.76,531.667 1023.96,528.122C1022.51,521.528 1021.21,517.416 1020.05,515.786C1019.19,514.509 1017.74,513.552 1015.71,512.914C1014.27,512.418 1008.91,512.17 999.655,512.17C988.733,512.17 980.523,512.453 975.026,513.021L975.026,516.636C975.026,525.073 975.171,532.092 975.459,537.693L975.243,560.664C975.243,563.359 976.217,565.202 978.166,566.195C981.125,567.683 990.184,568.428 1005.34,568.428C1015.37,568.428 1023.89,567.683 1030.89,566.195C1035.73,565.131 1039.99,562.756 1043.67,559.069C1048.58,554.319 1052.65,547.655 1055.9,539.076C1058.14,538.863 1059.98,538.757 1061.42,538.757C1062.22,538.757 1063.41,538.792 1065,538.863C1064.78,540.636 1064.61,542.124 1064.46,543.33L1063.82,546.52L1059.88,566.62L1057.96,578.744C1053.26,578.956 1049.54,579.063 1046.8,579.063C1042.75,579.063 1031.95,578.708 1014.4,577.999C1002.05,577.503 987.168,577.255 969.76,577.255C961.092,577.255 950.437,577.609 937.796,578.318L933.245,578.318L920.135,578.744L920.135,571.406C921.506,571.051 924.249,570.661 928.363,570.236C935.87,569.385 941.067,568.251 943.954,566.833C944.748,564.777 945.145,562.189 945.145,559.069C945.145,557.864 945.109,555.808 945.036,552.901L945.145,549.604L944.82,509.511L944.928,497.494L944.387,480.478L944.495,468.461L943.521,455.274C943.521,454.919 943.448,454.21 943.304,453.147C942.582,452.367 941.5,451.871 940.056,451.658C939.262,451.516 938.179,451.303 936.808,451.02C932.694,450.169 928.724,449.673 924.899,449.531C923.527,449.46 921.939,449.318 920.135,449.106L920.676,440.598ZM1104.71,571.725C1106.59,570.732 1109.36,570.005 1113.05,569.544C1116.73,569.084 1120.05,568.321 1123.01,567.258C1123.37,565.84 1123.58,564.812 1123.65,564.174C1123.8,563.181 1123.87,559.778 1123.87,553.965L1123.76,530.249L1124.2,517.487L1123.98,507.597L1124.2,501.854C1124.41,494.126 1124.52,486.894 1124.52,480.159C1124.52,465.412 1124.34,455.983 1123.98,451.871L1117.59,450.594C1111.75,450.24 1107.85,449.885 1105.9,449.531L1105.68,443.15L1106.12,441.98C1109.72,441.413 1113.05,441.129 1116.08,441.129C1117.74,441.129 1121.09,441.094 1126.14,441.023C1131.34,441.448 1134.16,441.661 1134.59,441.661L1140.33,441.342L1153.86,440.704C1162.31,439.853 1171.22,439.428 1180.6,439.428C1195.4,439.428 1207.16,443.132 1215.9,450.541C1224.63,457.95 1229,466.44 1229,476.012C1229,483.172 1226.64,489.677 1221.93,495.526C1217.22,501.375 1209.97,505.789 1200.19,508.767C1201.05,510.256 1202.2,511.993 1203.64,513.978C1206.66,518.232 1209.11,521.847 1210.98,524.825L1228.24,552.369C1232.57,559.672 1235.4,563.943 1236.74,565.184C1238.08,566.425 1240.84,567.79 1245.02,569.279C1248.27,570.484 1250.76,571.689 1252.49,572.894C1252.92,574.1 1253.14,575.163 1253.14,576.085C1253.14,576.723 1253.11,577.538 1253.03,578.531L1250.11,578.531L1247.94,578.637L1242.32,577.893L1237.88,577.893C1235.57,577.538 1232.71,577.361 1229.32,577.361L1218.5,577.255C1217.7,577.255 1215.18,577.503 1210.92,577.999C1208.97,578.212 1207.42,578.389 1206.26,578.531L1202.58,571.512C1199.55,566.195 1197.42,562.224 1196.19,559.601C1193.02,552.724 1187.57,541.77 1179.85,526.739C1176.24,519.791 1173.71,515.857 1172.27,514.935C1170.1,513.446 1166.38,512.702 1161.12,512.702C1159.67,512.702 1157.22,512.772 1153.75,512.914C1153.54,514.97 1153.43,517.416 1153.43,520.252L1153.97,543.861L1153.32,563.855C1155.34,565.06 1157.98,565.982 1161.22,566.62C1166.85,567.754 1171.69,569.101 1175.73,570.661C1175.73,574.135 1175.59,576.758 1175.3,578.531C1173.93,578.46 1173.06,578.425 1172.7,578.425L1168.26,578.637C1152.74,577.29 1143.54,576.617 1140.65,576.617C1138.78,576.617 1137.44,576.652 1136.65,576.723L1121.71,577.68C1117.16,578.176 1113.01,578.425 1109.26,578.425L1104.6,578.425C1104.46,576.652 1104.38,575.518 1104.38,575.021C1104.38,574.241 1104.49,573.143 1104.71,571.725ZM1153.43,502.918C1156.89,503.059 1159.42,503.13 1161.01,503.13C1173.28,503.13 1181.97,500.968 1187.1,496.643C1192.22,492.318 1194.79,486.54 1194.79,479.308C1194.79,474.842 1194.16,470.641 1192.9,466.706C1191.64,462.771 1190.07,459.847 1188.2,457.932C1185.54,455.167 1182.05,453.076 1177.73,451.658C1174.56,450.594 1169.48,450.063 1162.5,450.063C1159.19,450.063 1156.35,450.24 1153.97,450.594L1153.75,452.615L1153.97,466.972L1153.64,475.692L1153.75,487.284C1153.61,490.546 1153.5,494.764 1153.43,499.94L1153.43,502.918ZM254.401,217.461C257.262,218.384 260.051,219.407 262.768,220.532C277.845,226.776 289.597,235.996 298.023,248.193C306.449,260.39 310.661,275.345 310.661,293.06C310.661,319.196 300.166,339.597 279.176,354.262C258.185,368.927 227.291,376.26 186.492,376.26L25.96,376.26L25.96,71.339L177.623,71.339C216.648,71.339 245.99,78.599 265.65,93.119C285.31,107.639 295.14,126.806 295.14,150.618C295.14,166.59 291.149,180.457 283.167,192.218C275.977,202.812 266.388,211.226 254.401,217.461ZM97.357,196.357L168.754,196.357C186.197,196.357 199.575,193.38 208.887,187.427C218.2,181.473 222.856,172.398 222.856,160.202C222.856,148.295 218.2,139.365 208.887,133.412C199.575,127.459 186.197,124.482 168.754,124.482L97.357,124.482L97.357,196.357ZM97.357,247.757L97.357,323.116L181.171,323.116C199.796,323.116 213.913,320.14 223.521,314.187C233.13,308.233 237.934,298.723 237.934,285.655C237.934,272.877 233.13,263.366 223.521,257.123C213.913,250.879 199.796,247.757 181.171,247.757L97.357,247.757ZM849.466,191.186L849.466,376.26L778.512,376.26L778.512,71.339L837.936,71.339L992.26,256.329L992.26,71.339L1063.21,71.339L1063.21,376.26L1004.23,376.26L849.466,191.186ZM1208.23,299.288L1208.23,376.26L1136.83,376.26L1136.83,71.339L1208.23,71.339L1208.23,213.631L1345.7,71.339L1425.52,71.339L1297.01,207.192L1433.06,376.26L1349.25,376.26L1249.82,256.635L1208.23,299.288ZM365.207,376.26L365.207,71.339L437.048,71.339L437.048,318.76L592.702,318.76L592.702,376.26L365.207,376.26ZM633.057,376.26L633.057,71.339L704.898,71.339L704.898,376.26L633.057,376.26Z"/>
    </g>
</svg>
